<?xml version="1.0" standalone="no"?>
<!DOCTYPE svg PUBLIC "-//W3C//DTD SVG 20010904//EN"
 "http://www.w3.org/TR/2001/REC-SVG-20010904/DTD/svg10.dtd">
<svg version="1.0" xmlns="http://www.w3.org/2000/svg"
 width="1588.000000pt" height="1588.000000pt" viewBox="0 0 1588.000000 1588.000000"
 preserveAspectRatio="xMidYMid meet">
<metadata>
Created by potrace 1.14, written by Peter Selinger 2001-2017
</metadata>
<g transform="translate(0.000000,1588.000000) scale(0.100000,-0.100000)"
fill="#000000" stroke="none">
<path d="M8309 14976 c-2 -3 -25 -6 -50 -7 l-46 -3 -73 -225 c-41 -124 -74
-228 -75 -231 -2 -7 -40 -125 -115 -355 -35 -104 -71 -216 -80 -248 l-18 -57
61 6 c34 3 65 9 68 13 4 3 31 79 60 169 49 153 54 162 78 163 14 1 41 2 59 4
94 8 191 17 227 20 22 3 69 7 105 10 l65 5 54 -103 c29 -56 67 -126 83 -155
l30 -52 66 6 c37 3 68 7 69 8 1 1 -4 13 -11 26 -47 90 -128 242 -181 340 -34
63 -82 151 -105 195 -23 44 -55 103 -70 130 -50 92 -103 189 -137 255 -35 66
-55 94 -64 86z m36 -301 c99 -189 137 -259 152 -283 8 -13 13 -25 11 -28 -2
-2 -31 -6 -63 -9 -33 -3 -73 -8 -90 -10 -16 -2 -74 -7 -127 -10 l-97 -7 19 53
c10 30 44 134 75 232 31 98 58 177 59 175 2 -2 29 -52 61 -113z"/>
<path d="M9980 14946 c0 -3 14 -64 31 -134 31 -129 68 -285 74 -312 2 -8 19
-80 38 -160 20 -80 54 -226 77 -325 38 -163 55 -213 67 -201 2 2 20 0 39 -4
40 -9 28 -25 193 245 51 83 96 157 101 165 59 95 115 187 148 240 100 160 194
320 193 326 0 8 -6 9 -81 20 -44 6 -46 5 -63 -28 -9 -18 -33 -58 -52 -88 -20
-30 -40 -64 -45 -75 -6 -11 -57 -96 -114 -190 -58 -93 -138 -225 -178 -292
-40 -66 -74 -120 -75 -119 -2 2 -125 521 -138 581 -2 11 -21 90 -41 177 l-37
156 -46 7 c-25 3 -56 9 -68 12 -13 3 -23 2 -23 -1z"/>
<path d="M7070 14780 c-61 -18 -60 -16 -34 -105 12 -43 37 -134 139 -510 7
-27 23 -84 34 -125 12 -41 21 -76 21 -78 0 -3 -15 7 -34 22 -19 14 -70 51
-114 83 -43 32 -220 162 -393 288 -172 127 -320 229 -329 227 -69 -14 -91 -24
-86 -38 3 -9 17 -57 30 -107 13 -51 50 -184 81 -297 31 -113 59 -212 61 -220
2 -8 10 -40 19 -70 9 -30 17 -62 19 -70 2 -8 16 -58 30 -110 15 -52 29 -103
31 -114 3 -10 6 -20 8 -22 4 -4 107 23 114 30 4 4 -75 304 -174 654 -19 67
-33 126 -31 131 2 5 53 -27 115 -72 61 -45 171 -126 245 -179 73 -54 138 -101
143 -105 6 -5 85 -64 178 -131 l168 -123 47 13 c58 17 58 16 8 193 -21 72 -43
153 -51 180 -64 241 -179 652 -184 661 -4 7 -23 5 -61 -6z"/>
<path d="M11521 14558 c-11 -35 -27 -88 -36 -118 -23 -75 -43 -144 -110 -360
-31 -102 -74 -243 -96 -315 -21 -71 -41 -137 -44 -146 -4 -12 9 -20 55 -34 33
-10 62 -16 65 -13 3 3 16 40 29 84 13 43 58 192 100 329 74 240 126 410 148
485 6 19 17 52 25 74 8 21 13 40 11 41 -4 4 -110 35 -119 35 -4 0 -16 -28 -28
-62z"/>
<path d="M12648 14157 c-25 -23 -101 -91 -169 -152 -68 -60 -131 -117 -139
-125 -20 -18 -175 -158 -204 -183 -12 -10 -35 -31 -53 -47 -17 -16 -78 -70
-135 -121 -57 -50 -107 -95 -111 -99 -9 -8 84 -60 106 -60 14 0 23 8 168 140
51 47 98 84 106 82 13 -3 385 -174 413 -191 16 -9 16 -26 9 -251 l-4 -104 59
-29 c32 -15 61 -26 63 -23 6 6 6 -5 29 721 2 83 6 214 9 292 l4 143 -29 15
c-70 36 -73 36 -122 -8z m16 -309 c-10 -237 -12 -281 -13 -300 -1 -18 -15 -13
-244 96 l-98 47 53 47 c29 26 59 54 68 62 9 8 54 49 100 90 47 41 94 85 105
97 11 13 24 23 28 23 4 0 5 -73 1 -162z"/>
<path d="M5198 14115 c-46 -25 -46 -25 -43 -70 3 -25 7 -103 10 -173 3 -70 7
-167 10 -217 5 -104 13 -271 20 -430 8 -184 15 -288 18 -291 2 -2 29 8 60 23
l57 27 -5 90 c-3 50 -7 129 -10 176 l-4 85 205 100 c113 55 212 101 220 103 8
2 65 -40 127 -94 61 -54 120 -104 130 -112 16 -14 23 -13 77 13 33 16 60 32
60 36 0 3 -15 18 -32 32 -18 14 -42 33 -53 44 -11 10 -87 77 -170 148 -82 71
-152 132 -155 135 -3 3 -34 30 -70 60 -36 30 -67 58 -70 61 -19 21 -322 279
-328 279 -4 -1 -28 -12 -54 -25z m154 -220 c24 -22 81 -74 128 -115 47 -41 91
-80 97 -87 7 -6 25 -21 39 -32 15 -12 25 -23 23 -25 -13 -13 -330 -163 -333
-157 -2 3 -7 71 -11 151 -3 80 -8 185 -11 233 -4 100 -5 99 68 32z"/>
<path d="M13595 13402 c-88 -124 -178 -251 -200 -282 -22 -32 -88 -126 -147
-209 -60 -84 -108 -153 -108 -155 0 -7 101 -69 104 -65 5 5 336 472 409 577
32 45 62 82 66 82 4 0 7 -10 7 -22 1 -50 15 -335 19 -382 2 -28 7 -105 10
-171 3 -66 7 -151 10 -190 2 -38 6 -117 10 -175 5 -103 6 -106 38 -132 17 -15
39 -27 47 -28 8 0 76 87 150 192 74 105 210 297 302 427 92 130 168 238 168
241 0 7 -100 74 -103 69 -3 -4 -271 -383 -355 -503 -24 -33 -60 -85 -79 -114
-20 -29 -38 -51 -40 -49 -4 5 -10 78 -18 232 -11 215 -16 301 -20 370 -2 39
-7 135 -10 215 -10 233 -10 232 -42 258 -57 47 -46 56 -218 -186z"/>
<path d="M4173 13522 c-12 -9 -34 -25 -48 -35 l-25 -18 167 -247 c381 -565
427 -632 434 -632 12 0 99 63 99 71 0 5 -77 122 -171 261 -93 139 -225 335
-292 435 -67 100 -126 182 -132 182 -5 0 -20 -7 -32 -17z"/>
<path d="M3542 13009 c-182 -36 -383 -236 -418 -414 -30 -159 18 -332 132
-465 150 -176 342 -245 539 -195 198 51 380 234 408 412 5 30 3 32 -48 50
l-53 20 -6 -28 c-10 -49 -48 -123 -93 -175 -208 -249 -558 -192 -709 115 -35
71 -38 82 -38 171 -1 85 2 101 28 153 54 112 178 213 292 238 51 12 54 14 53
43 -2 48 -13 81 -29 82 -8 1 -34 -2 -58 -7z"/>
<path d="M8628 12845 c-1 -2 -52 -6 -113 -10 -60 -3 -121 -8 -135 -10 -14 -2
-61 -7 -105 -10 -44 -4 -82 -8 -85 -10 -3 -2 -39 -6 -80 -10 -41 -4 -78 -9
-81 -11 -3 -1 -28 -6 -56 -9 -27 -3 -60 -8 -74 -10 -13 -3 -40 -8 -59 -11 -65
-11 -275 -53 -345 -69 -38 -9 -77 -18 -85 -20 -28 -6 -145 -36 -175 -46 -16
-5 -77 -23 -135 -40 -219 -64 -455 -148 -685 -246 -111 -47 -519 -244 -565
-273 -8 -5 -76 -45 -150 -88 -301 -174 -688 -447 -895 -631 -23 -20 -70 -61
-105 -92 -242 -212 -501 -481 -710 -739 -201 -248 -439 -596 -565 -824 -12
-23 -37 -68 -55 -101 -86 -155 -201 -396 -260 -540 -18 -44 -38 -94 -46 -111
-25 -58 -111 -298 -142 -399 -62 -203 -72 -238 -106 -378 -30 -123 -73 -333
-91 -447 -3 -19 -10 -60 -15 -90 -5 -30 -12 -80 -15 -110 -3 -30 -10 -89 -15
-130 -9 -72 -12 -112 -26 -303 -8 -119 -9 -504 0 -652 7 -131 33 -416 41 -453
3 -12 8 -44 11 -70 2 -26 9 -69 14 -97 5 -27 12 -66 14 -85 9 -58 28 -155 42
-215 1 -5 5 -24 8 -41 3 -17 20 -84 36 -150 17 -65 33 -129 36 -141 2 -12 24
-87 49 -165 38 -123 70 -215 141 -413 75 -207 299 -666 427 -875 22 -36 48
-80 59 -99 44 -77 208 -316 313 -456 540 -720 1236 -1320 2025 -1747 709 -384
1505 -639 2295 -733 28 -3 65 -8 83 -10 18 -3 69 -7 115 -10 45 -3 93 -8 107
-10 41 -7 334 -18 495 -18 232 0 568 18 720 38 17 2 57 7 90 10 33 4 67 8 75
10 8 2 40 7 70 10 374 44 1064 227 1445 386 245 101 289 121 480 215 787 387
1475 929 2048 1611 188 224 390 508 549 773 220 367 399 757 539 1173 33 98
62 187 65 196 2 9 24 93 48 186 25 94 47 181 50 195 2 14 13 68 24 120 11 52
23 113 26 135 4 22 13 78 21 125 20 119 25 158 30 215 5 50 11 103 20 180 25
217 25 914 0 1045 -1 8 -6 53 -10 100 -3 47 -8 92 -10 100 -2 8 -7 40 -10 70
-11 98 -44 290 -74 435 -132 629 -380 1264 -706 1810 -65 108 -85 141 -154
245 -325 495 -719 936 -1207 1350 -468 398 -1125 787 -1739 1030 -108 43 -408
148 -470 165 -27 7 -70 20 -95 28 -84 28 -441 115 -540 132 -19 3 -66 12 -105
20 -38 7 -90 16 -115 20 -25 3 -52 8 -60 10 -8 2 -37 6 -65 10 -27 3 -66 8
-85 10 -89 12 -221 26 -285 31 -38 3 -90 8 -115 11 -51 5 -786 14 -792 8z"/>
<path d="M15250 12355 c-19 -8 -258 -100 -530 -205 -272 -105 -496 -193 -499
-196 -3 -2 15 -25 40 -50 l46 -45 44 16 c24 9 53 21 64 25 11 5 64 27 117 48
l97 39 170 -173 170 -173 -55 -133 c-31 -73 -61 -146 -67 -161 -11 -27 -9 -32
33 -77 34 -37 48 -46 56 -37 6 7 30 59 54 117 23 58 51 125 62 150 23 54 31
73 51 125 23 57 106 256 117 280 5 11 43 103 85 203 l76 184 -33 38 c-37 43
-47 45 -98 25z m-51 -172 c-6 -15 -16 -41 -24 -58 -8 -16 -26 -59 -40 -95 -14
-36 -35 -85 -46 -109 -11 -24 -29 -67 -40 -95 -12 -28 -23 -53 -25 -55 -2 -2
-62 56 -134 130 -107 111 -127 135 -112 142 34 15 417 165 424 166 4 1 3 -11
-3 -26z"/>
<path d="M2407 11991 c-20 -27 -37 -51 -37 -54 0 -3 57 -51 128 -106 70 -56
136 -109 147 -119 11 -10 65 -54 120 -99 129 -105 168 -145 203 -216 53 -104
29 -219 -63 -310 -115 -115 -276 -114 -433 4 -31 23 -59 45 -62 48 -17 20
-411 331 -418 331 -5 0 -20 -16 -33 -35 -13 -19 -27 -35 -30 -35 -4 0 -9 -7
-12 -15 -4 -9 43 -53 146 -136 84 -68 197 -159 252 -204 55 -45 118 -93 140
-107 188 -116 384 -96 534 55 100 100 142 199 137 323 -2 61 -9 86 -39 146
-20 40 -55 92 -78 116 -34 36 -520 434 -555 455 -6 3 -27 -16 -47 -42z"/>
<path d="M1282 10350 l-31 -59 137 -77 c75 -43 252 -142 392 -222 140 -79 280
-158 310 -174 30 -17 60 -35 67 -40 7 -5 17 -7 22 -4 5 4 40 61 78 129 37 67
72 129 78 138 5 9 24 43 41 75 18 32 53 95 79 138 53 89 53 85 -26 126 l-36
19 -41 -72 c-22 -40 -80 -142 -129 -227 l-88 -156 -235 133 c-129 74 -246 140
-260 148 -14 8 -41 22 -60 32 -19 9 -46 25 -60 34 -14 9 -52 31 -85 49 -33 18
-74 41 -90 51 l-31 18 -32 -59z"/>
<path d="M1078 8895 c-1 -2 -32 -5 -68 -6 -153 -6 -294 -85 -384 -213 -47 -68
-58 -91 -80 -156 -62 -194 -23 -394 105 -534 107 -117 241 -176 414 -182 97
-3 119 0 184 22 140 47 240 136 305 269 170 350 -31 734 -414 791 -19 3 -40 7
-47 9 -6 2 -13 2 -15 0z m145 -176 c106 -42 180 -109 230 -209 28 -56 32 -76
34 -152 2 -99 -12 -155 -62 -234 -74 -116 -200 -184 -345 -184 -197 0 -387
139 -425 310 -76 336 242 597 568 469z"/>
<path d="M309 7268 c-1 -5 -9 -62 -13 -95 -2 -18 -1 -33 3 -34 3 0 15 -2 26
-4 11 -3 43 -6 70 -9 42 -4 248 -27 360 -41 17 -2 57 -6 90 -10 33 -3 74 -8
90 -10 17 -2 57 -7 90 -10 33 -3 71 -8 85 -10 41 -7 162 -18 205 -19 33 -1 40
2 41 19 1 11 4 39 7 63 5 38 4 42 -16 43 -12 0 -29 2 -37 4 -8 1 -44 6 -80 9
-36 4 -77 9 -93 11 -15 2 -55 6 -90 10 -34 4 -75 9 -92 11 -16 2 -55 6 -85 9
-30 4 -71 8 -90 11 -19 2 -60 6 -90 9 -50 5 -78 9 -165 20 -16 3 -55 7 -85 9
-30 3 -72 8 -92 11 -21 4 -38 5 -39 3z"/>
<path d="M665 6454 c-123 -24 -186 -57 -263 -134 -67 -66 -115 -163 -138 -275
-14 -66 -16 -115 -11 -280 4 -110 7 -201 7 -203 0 -1 71 0 158 3 86 2 272 7
412 11 248 6 372 10 456 13 l41 1 -3 174 c-1 95 -8 202 -14 237 -24 135 -102
277 -189 347 -119 95 -301 138 -456 106z m242 -149 c129 -38 216 -126 264
-267 22 -67 41 -317 23 -319 -24 -2 -174 -7 -424 -13 -151 -4 -299 -8 -328
-10 -29 -2 -55 2 -59 7 -3 5 -7 64 -8 131 -3 137 13 218 60 304 84 154 278
223 472 167z"/>
<path d="M1059 4945 c-2 -1 -29 -6 -59 -9 -30 -3 -116 -18 -190 -34 -74 -16
-208 -44 -297 -62 -181 -37 -173 -31 -152 -116 13 -52 -1 -51 199 -9 63 13
126 26 140 28 26 5 220 45 255 53 11 3 54 7 95 10 152 12 259 -49 301 -170 60
-175 -14 -329 -191 -394 -30 -11 -167 -43 -305 -71 -285 -58 -289 -59 -330
-67 -16 -3 -30 -6 -32 -7 -5 -6 22 -127 29 -127 6 0 372 74 473 95 10 3 37 7
58 10 78 12 196 52 252 86 95 57 161 146 184 250 9 41 8 174 -3 214 -23 89
-60 161 -110 211 -36 36 -114 83 -148 89 -12 3 -34 7 -48 10 -37 7 -117 14
-121 10z"/>
<path d="M738 3407 l-46 -22 29 -75 c16 -41 34 -84 39 -95 9 -18 123 -310 216
-551 l36 -92 56 23 c37 14 56 27 54 36 -2 8 -30 81 -63 163 -32 82 -59 155
-59 161 0 10 65 45 84 45 5 0 22 7 39 15 18 8 131 53 252 101 121 47 272 106
335 131 63 25 125 49 137 54 l23 8 -21 53 c-11 29 -24 57 -28 61 -7 7 -77 -15
-136 -43 -11 -5 -108 -44 -215 -86 -107 -42 -269 -105 -359 -140 -90 -36 -165
-63 -166 -62 -3 3 -67 161 -108 268 -14 36 -32 66 -39 67 -7 1 -34 -8 -60 -20z"/>
<path d="M1977 2525 c-72 -27 -121 -70 -159 -140 -18 -33 -22 -57 -22 -140 -1
-55 3 -129 8 -165 28 -192 -7 -283 -122 -308 -112 -26 -230 124 -220 279 4 54
2 59 -16 59 -12 1 -38 3 -59 6 -42 6 -45 3 -51 -69 -10 -144 88 -325 210 -387
67 -34 179 -35 242 -2 65 35 117 93 136 157 17 51 22 159 12 212 -8 39 -18
157 -17 193 5 117 74 190 174 182 62 -5 130 -62 169 -141 18 -37 22 -64 23
-136 0 -49 -4 -100 -8 -111 -7 -20 -3 -22 39 -29 26 -3 52 -9 59 -11 19 -8 47
73 46 136 0 130 -53 251 -146 338 -92 86 -198 113 -298 77z"/>
</g>
</svg>
